<svg width="255" height="140" viewBox="0 0 255 140" fill="none" xmlns="http://www.w3.org/2000/svg">
<path d="M244.661 107.663C243.163 118.757 233.226 126.725 222.071 125.777L21.9853 108.771C10.023 107.755 1.34611 96.9341 2.95265 85.0366L11.2166 23.8369C12.878 11.5333 24.7931 3.34905 36.8733 6.21382L232.976 52.7185C243.482 55.2099 250.386 65.2619 248.941 75.9619L244.661 107.663Z" fill="#FE6B6B"/>
<path d="M35.5175 56.8903C33.1626 56.4859 31.4673 55.494 30.4317 53.9146C29.3929 52.3536 29.0836 50.3497 29.5038 47.9028L30.4231 42.5492L33.2655 43.0373L32.3556 48.3357C31.8059 51.5369 33.0397 53.3965 36.0568 53.9146L37.1883 54.1089C38.6601 54.3617 39.8886 54.1559 40.8739 53.4918C41.8592 52.8276 42.4735 51.7872 42.7167 50.3706L44.1431 42.0642L47.0131 42.5571L45.6294 50.6151C45.3514 52.2341 44.7909 53.5678 43.9479 54.6163C43.1018 55.6831 42.0471 56.4206 40.7839 56.8287C39.5358 57.2583 38.1667 57.3452 36.6765 57.0893L35.5175 56.8903ZM36.8611 40.1319L37.3255 37.4275L40.637 37.9962L40.1726 40.7006L36.8611 40.1319ZM55.6758 50.4084C55.7678 50.4242 55.8148 50.5365 55.8168 50.7451C55.8373 50.957 55.7938 51.3757 55.6864 52.0012C55.5853 52.5899 55.4913 52.9715 55.4045 53.146C55.3361 53.3237 55.256 53.4046 55.164 53.3888L54.3361 53.2466C52.8643 52.9939 51.8255 52.3704 51.2197 51.3762C50.6139 50.382 50.4468 49.0938 50.7185 47.5116L52.9268 34.6519L55.7692 35.14L53.5941 47.8066C53.4646 48.5609 53.5078 49.1365 53.7237 49.5334C53.958 49.9335 54.388 50.1873 55.0135 50.2947L55.6758 50.4084ZM60.8457 51.2962C61.4344 51.3973 61.9288 51.3307 62.3289 51.0963C62.7506 50.8468 63.0088 50.446 63.1036 49.8941L63.8665 45.4511L66.7089 45.9392L65.9649 50.2718C65.7533 51.5044 66.2821 52.2297 67.5516 52.4477L68.5174 52.6136C68.7014 52.6452 68.7065 53.1669 68.5328 54.1788C68.3653 55.1538 68.1896 55.6256 68.0056 55.594L66.9294 55.4092C65.3104 55.1311 64.3195 54.4496 63.9565 53.3645C63.142 54.2474 61.9345 54.5514 60.3339 54.2766L55.1735 53.3904C54.9895 53.3588 54.9796 52.8647 55.1439 51.908C55.3208 50.8778 55.5013 50.3785 55.6853 50.41L60.8457 51.2962ZM67.8791 40.1173L67.4242 42.7665L59.9181 41.4776L60.373 38.8283L67.8791 40.1173ZM76.3864 52.2603C76.1368 53.7137 75.5086 54.78 74.5017 55.4594C73.4981 56.1204 72.2695 56.3262 70.8161 56.0766L68.0013 55.5932C67.8174 55.5616 67.8075 55.0675 67.9718 54.1108C68.1487 53.0806 68.3291 52.5813 68.5131 52.6128L71.3279 53.0962C71.8982 53.1941 72.3834 53.1259 72.7835 52.8916C73.1868 52.6389 73.4358 52.2366 73.5306 51.6846L74.2935 47.2417L77.1635 47.7345L76.3864 52.2603ZM78.9038 42.0673L78.4489 44.7165L70.9427 43.4275L71.3976 40.7783L78.9038 42.0673ZM84.9088 53.4396C84.6876 54.7274 85.2762 55.4914 86.6744 55.7315L87.0607 55.7978C87.2447 55.8294 87.2482 56.3604 87.0713 57.3906C86.907 58.3473 86.7329 58.8098 86.5489 58.7782L86.1626 58.7119C85.7026 58.6329 85.2905 58.4958 84.9263 58.3007C84.5836 58.0904 84.3409 57.8498 84.198 57.579L84.1695 57.7446C83.8863 59.1733 83.3372 60.3858 82.5221 61.3823C81.7254 62.3819 80.7231 63.0904 79.515 63.508C78.3253 63.9287 77.0037 64.0143 75.5503 63.7647L73.4806 63.4093L73.744 60.3863L76.0345 60.7796C77.4511 61.0229 78.6245 60.8077 79.5546 60.134C80.4999 59.482 81.0973 58.4292 81.3469 56.9758L82.7686 48.697L85.6385 49.1898L84.9088 53.4396ZM89.0412 56.1379C90.4394 56.378 91.6066 56.4743 92.5428 56.4267C93.4974 56.3823 94.5004 56.1663 95.5519 55.7786L99.3702 54.3888C99.2795 53.4831 99.0402 52.8359 98.6524 52.4473C98.2677 52.0404 97.6339 51.761 96.7508 51.6094L90.3761 50.5147L91.2466 47.596L97.7593 48.7143C98.9 48.9102 99.7958 49.2629 100.447 49.7725C101.101 50.2636 101.592 50.9918 101.919 51.957C102.245 52.9222 102.455 54.2367 102.548 55.9005L96.4642 58.407C95.0989 58.968 93.8207 59.2977 92.6295 59.3962C91.4598 59.4795 90.0471 59.3789 88.3914 59.0946L86.5424 58.7771C86.3585 58.7455 86.3486 58.2514 86.5129 57.2947C86.6898 56.2645 86.8703 55.7651 87.0542 55.7967L89.0412 56.1379ZM90.3253 65.5348L90.7897 62.8304L94.1013 63.3991L93.6368 66.1035L90.3253 65.5348ZM110.976 59.9045C111.068 59.9203 111.115 60.0326 111.117 60.2413C111.137 60.4531 111.094 60.8718 110.986 61.4973C110.885 62.086 110.791 62.4676 110.704 62.6421C110.636 62.8198 110.556 62.9007 110.464 62.8849L109.636 62.7428C108.164 62.49 107.125 61.8665 106.52 60.8723C105.914 59.8781 105.747 58.5899 106.018 57.0078L108.227 44.148L111.069 44.6361L108.894 57.3027C108.765 58.057 108.808 58.6326 109.024 59.0295C109.258 59.4296 109.688 59.6834 110.313 59.7908L110.976 59.9045ZM127.681 62.7732C127.865 62.8047 127.868 63.3357 127.691 64.3659C127.527 65.3226 127.353 65.7851 127.169 65.7535C126.102 65.5703 125.276 65.58 124.692 65.7828C124.108 65.9855 123.49 66.495 122.839 67.3112L119.629 71.2772L118.056 71.0071C116.07 70.6659 114.61 69.847 113.677 68.5504C112.744 67.2539 112.45 65.603 112.795 63.5976L112.847 63.2941L110.473 62.8865C110.289 62.855 110.28 62.3608 110.444 61.4042C110.621 60.3739 110.801 59.8746 110.985 59.9062L113.358 60.3137L113.794 57.7749C114.11 55.9351 114.831 54.5531 115.955 53.6288C117.098 52.7076 118.479 52.386 120.098 52.664C121.662 52.9326 122.827 53.5966 123.592 54.656C124.357 55.7154 124.607 57.0178 124.341 58.5632C124.139 59.7406 123.623 60.76 122.793 61.6213C121.985 62.4674 120.962 63.0777 119.723 63.4522C118.488 63.8082 117.159 63.883 115.736 63.6765L115.684 63.9801C115.472 65.2127 115.593 66.1616 116.047 66.8267C116.501 67.4918 117.335 67.9286 118.549 68.1371L120.841 65.3772C121.604 64.4664 122.287 63.7977 122.891 63.3711C123.513 62.9475 124.181 62.693 124.897 62.6076C125.631 62.5252 126.559 62.5804 127.681 62.7732ZM121.475 58.2131C121.601 57.4772 121.495 56.8813 121.157 56.4255C120.84 55.9544 120.323 55.6572 119.606 55.534C118.814 55.3982 118.171 55.5623 117.674 56.0263C117.178 56.4903 116.841 57.2375 116.664 58.2677L116.228 60.8065C117.682 61.0561 118.873 60.9576 119.802 60.5111C120.734 60.0461 121.292 59.2801 121.475 58.2131ZM128.356 62.8891C128.963 62.9934 129.416 62.948 129.715 62.7531C130.035 62.5429 130.241 62.1711 130.332 61.6375L130.498 60.6717C130.802 58.9055 131.529 57.591 132.681 56.7282C133.852 55.8686 135.283 55.5841 136.976 55.8747C138.668 56.1654 139.88 56.8848 140.611 58.0331C141.345 59.1629 141.554 60.6477 141.238 62.4875C140.938 64.2352 140.226 65.5145 139.102 66.3253C137.999 67.1208 136.611 67.3748 134.936 67.0874C133.998 66.9262 133.229 66.6616 132.63 66.2935C132.033 65.9069 131.629 65.4492 131.416 64.9204C130.994 65.397 130.495 65.7091 129.92 65.8567C129.364 66.0074 128.672 66.0116 127.844 65.8695L127.182 65.7557C126.998 65.7242 126.988 65.23 127.152 64.2734C127.329 63.2431 127.51 62.7438 127.694 62.7754L128.356 62.8891ZM138.395 61.9994C138.56 61.0427 138.47 60.2981 138.126 59.7655C137.803 59.2176 137.219 58.8711 136.372 58.7257C135.526 58.5804 134.85 58.7106 134.345 59.1163C133.861 59.5067 133.536 60.1894 133.368 61.1645C133.229 61.974 133.333 62.6358 133.681 63.15C134.031 63.6458 134.62 63.9648 135.448 64.107C136.295 64.2523 136.955 64.1573 137.429 63.8221C137.925 63.4716 138.247 62.864 138.395 61.9994ZM157.086 77.766C154.731 77.3616 153.036 76.3697 152 74.7904C150.961 73.2294 150.652 71.2254 151.072 68.7786L151.991 63.4249L154.834 63.913L153.924 69.2115C153.374 72.4126 154.608 74.2723 157.625 74.7904L158.757 74.9847C160.228 75.2374 161.457 75.0317 162.442 74.3675C163.427 73.7034 164.042 72.663 164.285 71.2464L167.199 54.2748L170.069 54.7676L167.198 71.4909C166.92 73.1098 166.359 74.4435 165.516 75.492C164.67 76.5589 163.615 77.2963 162.352 77.7044C161.104 78.1341 159.735 78.2209 158.245 77.965L157.086 77.766ZM177.514 71.3304C177.606 71.3462 177.653 71.4585 177.655 71.6672C177.675 71.879 177.632 72.2977 177.524 72.9232C177.423 73.5119 177.329 73.8935 177.242 74.068C177.174 74.2457 177.094 74.3266 177.002 74.3108L176.174 74.1687C174.702 73.9159 173.663 73.2924 173.057 72.2982C172.452 71.304 172.285 70.0158 172.556 68.4337L174.765 55.5739L177.607 56.062L175.432 68.7286C175.302 69.4829 175.346 70.0585 175.561 70.4554C175.796 70.8555 176.226 71.1093 176.851 71.2167L177.514 71.3304ZM179.703 71.7064C180.457 71.836 181.056 71.7683 181.499 71.5035C181.946 71.2203 182.223 70.7659 182.33 70.1404L183.055 65.9182L185.925 66.4111L185.2 70.6333C184.976 71.9395 185.609 72.7205 187.099 72.9764C187.853 73.106 188.452 73.0383 188.895 72.7735C189.341 72.4903 189.618 72.0359 189.726 71.4104L190.451 67.1882L193.321 67.6811L192.596 71.9033C192.488 72.5288 192.579 73.0463 192.869 73.4559C193.162 73.8471 193.658 74.1027 194.357 74.2227C195.074 74.3459 195.636 74.272 196.043 74.0009C196.47 73.7145 196.738 73.2586 196.846 72.633L197.571 68.4108L200.413 68.8989L199.688 73.1211C199.464 74.4274 199.986 75.1895 201.256 75.4074L202.222 75.5733C202.405 75.6049 202.409 76.1358 202.232 77.1661C202.068 78.1227 201.894 78.5853 201.71 78.5537L200.744 78.3878C199.842 78.233 199.127 77.9871 198.598 77.65C198.087 77.316 197.738 76.8678 197.55 76.3053C197.112 76.7604 196.588 77.0585 195.976 77.1998C195.383 77.3442 194.673 77.3453 193.845 77.2031C191.968 76.8809 190.846 76.1388 190.477 74.977C189.576 75.9209 188.28 76.2475 186.587 75.9568C185.557 75.7799 184.76 75.5105 184.197 75.1487C183.638 74.7685 183.266 74.2879 183.081 73.707C182.181 74.6509 180.884 74.9775 179.191 74.6868L177.011 74.3124C176.827 74.2809 176.817 73.7867 176.982 72.8301C177.159 71.7998 177.339 71.3005 177.523 71.3321L179.703 71.7064ZM202.871 75.6848C203.478 75.7891 203.931 75.7437 204.23 75.5488C204.55 75.3386 204.756 74.9668 204.847 74.4332L205.013 73.4674C205.316 71.7012 206.044 70.3867 207.196 69.5239C208.366 68.6643 209.798 68.3798 211.49 68.6704C213.183 68.9611 214.395 69.6805 215.126 70.8288C215.86 71.9586 216.069 73.4434 215.753 75.2832C215.453 77.0309 214.74 78.3102 213.616 79.121C212.514 79.9165 211.125 80.1705 209.451 79.8831C208.513 79.7219 207.744 79.4573 207.144 79.0892C206.548 78.7026 206.143 78.2449 205.931 77.7161C205.508 78.1927 205.01 78.5048 204.435 78.6524C203.879 78.8031 203.187 78.8074 202.359 78.6652L201.697 78.5515C201.513 78.5199 201.503 78.0257 201.667 77.0691C201.844 76.0388 202.025 75.5395 202.209 75.5711L202.871 75.6848ZM212.91 74.7951C213.075 73.8384 212.985 73.0938 212.64 72.5612C212.318 72.0134 211.733 71.6668 210.887 71.5214C210.041 71.3761 209.365 71.5063 208.86 71.912C208.376 72.3024 208.051 72.9851 207.883 73.9602C207.744 74.7697 207.848 75.4315 208.196 75.9457C208.546 76.4415 209.135 76.7605 209.963 76.9027C210.809 77.048 211.47 76.953 211.944 76.6178C212.44 76.2673 212.762 75.6598 212.91 74.7951ZM222.276 63.7326L225.119 64.2207L222.057 82.0478L219.215 81.5597L222.276 63.7326Z" fill="white"/>
<path d="M32.1122 81.8348C32.1295 80.0497 32.1731 78.5784 32.2433 77.4207C32.3342 76.2469 32.4867 74.8081 32.7007 73.1041L33.1996 69.1313L36.2278 69.5116L35.7289 73.4844C35.5219 75.1328 35.3104 76.5172 35.0944 77.6377C34.8785 78.7582 34.5604 80.2421 34.1403 82.0895L32.1122 81.8348ZM32.4043 87.3744C31.8116 87.2999 31.3845 87.1052 31.1231 86.7902C30.8802 86.4775 30.7994 85.997 30.8808 85.3488C30.9599 84.719 31.1546 84.292 31.465 84.0676C31.7962 83.827 32.2582 83.7439 32.8509 83.8183C33.4621 83.8951 33.8891 84.0898 34.132 84.4025C34.3958 84.699 34.4882 85.1621 34.4091 85.7918C34.33 86.4216 34.1237 86.866 33.7901 87.1251C33.4589 87.3657 32.997 87.4488 32.4043 87.3744ZM39.7902 82.799C39.8074 81.0139 39.8511 79.5426 39.9212 78.3849C40.0122 77.2111 40.1647 75.7722 40.3787 74.0683L40.8776 70.0955L43.9058 70.4758L43.4069 74.4486C43.1999 76.097 42.9884 77.4814 42.7724 78.6019C42.5565 79.7224 42.2384 81.2063 41.8183 83.0537L39.7902 82.799ZM40.0823 88.3386C39.4896 88.2641 39.0625 88.0694 38.8011 87.7544C38.5581 87.4417 38.4774 86.9612 38.5588 86.313C38.6379 85.6832 38.8326 85.2562 39.143 85.0318C39.4742 84.7912 39.9362 84.7081 40.5288 84.7825C41.14 84.8593 41.5671 85.054 41.81 85.3667C42.0738 85.6632 42.1661 86.1263 42.0871 86.756C42.008 87.3858 41.8017 87.8302 41.4681 88.0893C41.1369 88.3299 40.6749 88.413 40.0823 88.3386ZM57.5373 82.0082C58.074 82.8281 58.4325 83.5692 58.6127 84.2315C58.8138 84.8776 58.8724 85.534 58.7887 86.2008C58.6282 87.4787 58.0442 88.4589 57.0366 89.1414C56.0476 89.8261 54.7474 90.0673 53.1361 89.865L45.4683 88.9021L45.5673 85.8668L53.5129 86.8646C54.2167 86.9529 54.7782 86.9012 55.1974 86.7092C55.6189 86.4988 55.8564 86.1806 55.9099 85.7546C55.9471 85.4582 55.8998 85.1607 55.768 84.8619C55.657 84.547 55.4361 84.1336 55.1053 83.6217L50.8338 77.1873L53.12 75.3862L57.5373 82.0082ZM75.9569 89.6831C76.1421 89.7063 76.1696 90.2366 76.0393 91.2737C75.9184 92.2368 75.7653 92.7068 75.5801 92.6835L73.1075 92.373C72.6571 94.4612 71.7185 96.0177 70.2917 97.0425C68.8834 98.0697 67.1513 98.4542 65.0955 98.1961L61.5116 97.746L61.6384 94.7142L65.5556 95.2061C66.8706 95.3712 67.9497 95.1681 68.7928 94.5967C69.6359 94.0253 70.1388 93.1666 70.3015 92.0206L67.9123 91.7206C65.9491 91.474 64.5914 90.8991 63.8395 89.9957C63.0899 89.0737 62.8232 87.7515 63.0395 86.0291C63.1884 84.8437 63.542 83.8252 64.1005 82.9735C64.6775 82.1241 65.4049 81.5005 66.2826 81.1028C67.1812 80.6888 68.1676 80.5493 69.2418 80.6842C70.8902 80.8912 72.1169 81.6097 72.9219 82.8396C73.7293 84.051 74.0132 85.6105 73.7736 87.5182L73.5399 89.3795L75.9569 89.6831ZM65.9462 86.253C65.8486 87.0309 65.9825 87.6121 66.3481 87.9967C66.716 88.3627 67.4093 88.6097 68.428 88.7376L70.6783 89.0202L70.9051 87.2144C71.0423 86.1216 70.9236 85.2695 70.5488 84.6581C70.1764 84.0281 69.5735 83.6608 68.7401 83.5561C67.9807 83.4607 67.3531 83.6641 66.8574 84.1663C66.3639 84.6499 66.0602 85.3455 65.9462 86.253ZM78.1462 89.958C78.9056 90.0534 79.5007 89.9588 79.9315 89.6742C80.3646 89.3712 80.6207 88.9048 80.6998 88.2751L81.2336 84.0245L84.1229 84.3873L83.5891 88.6379C83.424 89.9529 84.0915 90.7046 85.5917 90.893C86.3511 90.9884 86.9462 90.8938 87.377 90.6092C87.8101 90.3062 88.0662 89.8398 88.1453 89.2101L88.6791 84.9595L91.5684 85.3223L91.0346 89.5729C90.9555 90.2026 91.0699 90.7155 91.3776 91.1116C91.6876 91.4892 92.1945 91.7222 92.8983 91.8106C93.6207 91.9013 94.1787 91.802 94.5725 91.5129C94.9871 91.2075 95.2339 90.7399 95.313 90.1102L95.8468 85.8596L98.7083 86.2189L98.178 90.4418C97.9803 92.0161 97.3812 93.1919 96.3805 93.9693C95.3822 94.7281 94.0958 95.0087 92.5215 94.811C90.6324 94.5738 89.4774 93.8831 89.0567 92.7391C88.1995 93.7227 86.9189 94.1074 85.2149 93.8934C84.1777 93.7632 83.3698 93.53 82.7912 93.194C82.2149 92.8394 81.8215 92.3761 81.6112 91.8041C80.7539 92.7877 79.4734 93.1724 77.7694 92.9584L75.5746 92.6828C75.3894 92.6596 75.3573 92.1664 75.4782 91.2033C75.6085 90.1661 75.7662 89.6591 75.9514 89.6824L78.1462 89.958ZM92.7306 75.3937L92.4061 77.9774L89.489 77.6111L89.8135 75.0274L92.7306 75.3937ZM94.5236 79.7672L94.1887 82.4343L86.632 81.4853L86.967 78.8183L94.5236 79.7672ZM128.114 96.233C128.299 96.2562 128.327 96.7864 128.197 97.8236C128.076 98.7867 127.923 99.2567 127.737 99.2334L125.015 98.8915C125.188 99.1579 125.244 99.5411 125.181 100.041C125.044 101.134 124.607 102.067 123.87 102.84C123.133 103.613 122.162 104.158 120.955 104.477C119.746 104.815 118.392 104.889 116.892 104.701L114.78 104.435C112.409 104.138 110.671 103.223 109.565 101.692C108.457 100.18 108.058 98.1919 108.367 95.7285L109.044 90.3389L111.905 90.6982L111.236 96.0323C110.831 99.255 112.147 101.057 115.185 101.439L117.268 101.7C118.843 101.898 120.047 101.823 120.88 101.476C121.714 101.13 122.183 100.54 122.288 99.7061C122.344 99.2616 122.264 98.9223 122.049 98.6884C121.85 98.4752 121.5 98.3373 121 98.2745L116 97.6465L116.64 94.7921L128.114 96.233ZM128.79 96.3179C129.402 96.3947 129.852 96.3289 130.142 96.1207C130.452 95.8963 130.641 95.5155 130.708 94.9784L130.83 94.0061C131.054 92.228 131.721 90.8821 132.833 89.9681C133.964 89.0565 135.381 88.7077 137.085 88.9217C138.789 89.1357 140.032 89.7998 140.814 90.9139C141.598 92.0095 141.874 93.4833 141.641 95.3354C141.42 97.0949 140.766 98.405 139.68 99.2657C138.614 100.11 137.239 100.427 135.554 100.215C134.609 100.096 133.829 99.8667 133.213 99.526C132.6 99.1668 132.175 98.7278 131.939 98.209C131.539 98.7042 131.054 99.0385 130.487 99.2119C129.938 99.3875 129.247 99.423 128.414 99.3183L127.747 99.2346C127.562 99.2113 127.53 98.7182 127.651 97.7551C127.781 96.7179 127.938 96.2109 128.124 96.2342L128.79 96.3179ZM138.779 94.9761C138.9 94.013 138.777 93.2732 138.409 92.7566C138.062 92.2239 137.463 91.9041 136.611 91.7971C135.759 91.6901 135.09 91.8506 134.603 92.2787C134.137 92.6905 133.843 93.3873 133.72 94.3689C133.617 95.1838 133.751 95.8403 134.121 96.3383C134.494 96.8178 135.097 97.1099 135.93 97.2145C136.782 97.3215 137.438 97.1969 137.896 96.8406C138.376 96.4681 138.67 95.8466 138.779 94.9761ZM171.496 101.681C171.681 101.704 171.709 102.234 171.579 103.272C171.458 104.235 171.304 104.705 171.119 104.681L168.397 104.339C168.57 104.606 168.626 104.989 168.563 105.489C168.425 106.582 167.989 107.515 167.252 108.288C166.515 109.06 165.543 109.606 164.337 109.925C163.128 110.262 161.774 110.337 160.274 110.149L158.162 109.883C155.791 109.586 154.053 108.671 152.947 107.14C151.839 105.628 151.44 103.64 151.749 101.176L152.426 95.7868L155.287 96.1461L154.618 101.48C154.213 104.703 155.529 106.505 158.567 106.886L160.65 107.148C162.225 107.346 163.429 107.271 164.262 106.924C165.096 106.578 165.565 105.987 165.67 105.154C165.726 104.709 165.646 104.37 165.431 104.136C165.232 103.923 164.882 103.785 164.382 103.722L159.382 103.094L160.022 100.24L171.496 101.681ZM173.617 101.947C174.617 102.073 175.37 102.148 175.874 102.174C176.381 102.181 176.79 102.148 177.1 102.074L174.283 96.6409L176.136 94.0233L183.165 94.906C184.313 95.0502 185.205 95.435 185.842 96.0605C186.478 96.686 186.731 97.5174 186.601 98.5546C186.506 99.3139 186.202 100.01 185.69 100.641C185.199 101.257 184.285 102.017 182.948 102.921C183.34 103.102 184.146 103.269 185.369 103.423L188.258 103.786C188.351 103.797 188.403 103.907 188.414 104.116C188.444 104.327 188.42 104.747 188.34 105.376C188.266 105.969 188.189 106.355 188.111 106.533C188.05 106.713 187.974 106.798 187.881 106.786L184.992 106.423C183.288 106.209 182.068 105.962 181.332 105.682C180.596 105.401 179.982 104.967 179.492 104.378C178.651 104.781 177.746 105.024 176.776 105.109C175.808 105.176 174.592 105.117 173.129 104.934L171.129 104.682C170.944 104.659 170.911 104.166 171.032 103.203C171.163 102.166 171.32 101.659 171.506 101.682L173.617 101.947ZM183.777 98.7926C183.817 98.4777 183.717 98.2207 183.479 98.0214C183.241 97.8222 182.89 97.6935 182.427 97.6353L177.51 97.0178L180.07 102.024C181.485 101.092 182.446 100.403 182.954 99.959C183.461 99.5148 183.735 99.126 183.777 98.7926ZM195.401 89.5005L194.092 99.9187C196.344 97.4171 198.563 96.3035 200.749 96.578C201.767 96.7059 202.653 97.0711 203.405 97.6735C204.159 98.2574 204.703 99.0217 205.036 99.9666C205.389 100.895 205.495 101.924 205.354 103.054C205.235 103.999 204.967 104.784 204.55 105.408C204.77 105.605 205.043 105.753 205.369 105.85C205.696 105.947 206.137 106.031 206.692 106.101L207.359 106.185C207.544 106.208 207.572 106.738 207.442 107.775C207.321 108.738 207.168 109.208 206.982 109.185L206.316 109.101C205.408 108.987 204.678 108.811 204.124 108.572C203.574 108.315 203.105 107.927 202.719 107.408C202.17 107.734 201.539 107.965 200.825 108.101C200.133 108.221 199.407 108.234 198.648 108.138L187.868 106.785C187.683 106.761 187.651 106.268 187.772 105.305C187.902 104.268 188.06 103.761 188.245 103.784L190.634 104.084L192.511 89.1376L195.401 89.5005ZM199.025 105.138C200.006 105.261 200.797 105.106 201.397 104.674C202.015 104.244 202.38 103.584 202.492 102.695C202.601 101.824 202.43 101.088 201.979 100.486C201.547 99.8859 200.941 99.5371 200.163 99.4394C199.237 99.3231 198.235 99.6675 197.155 100.473C196.076 101.278 194.801 102.594 193.329 104.423L199.025 105.138ZM211.401 106.692C211.975 106.764 212.357 106.793 212.547 106.78C211.549 106.184 210.856 105.561 210.467 104.91C210.1 104.243 209.975 103.437 210.094 102.492C210.222 101.474 210.57 100.577 211.137 99.8015C211.723 99.0286 212.453 98.4617 213.326 98.101C214.22 97.7241 215.186 97.6008 216.223 97.7311C217.964 97.9497 219.248 98.6566 220.077 99.8518C220.923 101.049 221.228 102.593 220.991 104.482L220.872 105.426C220.419 109.038 217.775 110.54 212.941 109.933L206.996 109.187C206.81 109.163 206.778 108.67 206.899 107.707C207.029 106.67 207.187 106.163 207.372 106.186L211.401 106.692ZM216.926 106.963C217.544 106.532 217.915 105.826 218.039 104.845L218.108 104.289C218.387 102.067 217.629 100.843 215.832 100.617C215.128 100.529 214.495 100.703 213.932 101.14C213.372 101.559 213.047 102.12 212.959 102.824C212.891 103.361 212.963 103.84 213.173 104.262C213.405 104.667 213.813 105.085 214.399 105.516C214.984 105.947 215.827 106.429 216.926 106.963ZM220.543 92.7707L220.208 95.4377L212.651 94.4888L212.986 91.8217L220.543 92.7707Z" fill="white"/>
</svg>
