<svg width="398" height="136" viewBox="0 0 398 136" fill="none" xmlns="http://www.w3.org/2000/svg">
<path d="M3.07202 61.0839C2.29935 49.812 10.5836 39.949 21.8197 38.7637L366.287 2.42396C377.902 1.19861 388.285 9.6859 389.395 21.3127L395.611 86.4312C396.754 98.4147 387.611 108.905 375.583 109.408L27.8702 123.953C16.5 124.428 6.82001 115.761 6.04175 104.407L3.07202 61.0839Z" fill="#FE6B6B"/>
<path d="M100.352 60.5758C100.009 58.8238 99.7555 57.3738 99.5911 56.2257C99.4439 55.0577 99.3035 53.6175 99.17 51.9054L98.8587 47.9135L101.901 47.6763L102.213 51.6681C102.342 53.3244 102.414 54.7231 102.428 55.8641C102.442 57.0052 102.429 58.5227 102.389 60.4169L100.352 60.5758ZM101.753 65.9431C101.158 65.9895 100.7 65.8848 100.381 65.6288C100.08 65.3714 99.9037 64.9171 99.853 64.2657C99.8036 63.633 99.9084 63.1754 100.167 62.8931C100.443 62.5908 100.879 62.4164 101.474 62.3699C102.089 62.322 102.546 62.4268 102.847 62.6842C103.165 62.9215 103.349 63.3565 103.398 63.9893C103.448 64.622 103.335 65.0989 103.06 65.4199C102.784 65.7222 102.349 65.8966 101.753 65.9431ZM113.272 61.8994C113.849 61.8544 114.296 61.7072 114.614 61.4577C114.948 61.1882 115.1 60.858 115.07 60.4672C115.042 60.1136 114.835 59.4932 114.447 58.606C114.06 57.7188 113.036 55.5144 111.376 51.9928L113.958 50.5276L117.908 59.4034C118.248 60.1632 118.589 60.689 118.93 60.9807C119.289 61.271 119.767 61.3929 120.362 61.3465L121.004 61.2964C121.191 61.2819 121.324 61.7957 121.405 62.8379C121.455 63.4706 121.458 63.8729 121.415 64.0448C121.391 64.2152 121.333 64.304 121.24 64.3112L120.486 64.37C119.63 64.4368 118.912 64.3616 118.334 64.1446C117.755 63.9276 117.276 63.5437 116.896 62.9929C116.606 63.596 116.183 64.0502 115.626 64.3558C115.069 64.6613 114.363 64.8474 113.507 64.9142L107.142 65.4105L106.628 62.4174L113.272 61.8994ZM124.342 61.0361C124.938 60.9897 125.401 60.8038 125.731 60.4785C126.079 60.1331 126.231 59.6812 126.187 59.1229L125.837 54.6285L128.74 54.4022L129.082 58.7849C129.179 60.0317 129.869 60.6051 131.154 60.505L132.103 60.431C132.289 60.4165 132.422 60.921 132.502 61.9445C132.578 62.9309 132.524 63.4313 132.338 63.4458L131.277 63.5285C129.621 63.6577 128.484 63.2408 127.865 62.278C127.292 63.3337 126.196 63.9247 124.577 64.051L121.228 64.3122C121.041 64.3267 120.911 63.8501 120.835 62.8823C120.754 61.8402 120.806 61.3118 120.992 61.2973L124.342 61.0361ZM127.289 67.1255L127.498 69.8054L119.905 70.3974L119.696 67.7176L127.289 67.1255ZM135.465 60.1688C136.06 60.1224 136.523 59.9365 136.854 59.6111C137.201 59.2658 137.353 58.8139 137.31 58.2556L136.959 53.7612L139.862 53.5349L140.204 57.9176C140.301 59.1644 140.992 59.7378 142.276 59.6377L143.225 59.5637C143.411 59.5492 143.544 60.0537 143.624 61.0772C143.701 62.0636 143.646 62.564 143.46 62.5785L142.399 62.6612C140.743 62.7904 139.606 62.3735 138.988 61.4107C138.415 62.4664 137.319 63.0574 135.7 63.1837L132.35 63.4449C132.164 63.4594 132.033 62.9828 131.958 62.015C131.876 60.9729 131.929 60.4445 132.115 60.43L135.465 60.1688ZM136.097 50.6268L135.884 47.8911L139.233 47.6299L139.447 50.3656L136.097 50.6268ZM150.858 58.9685C151.565 58.9133 152.105 58.7495 152.477 58.4771C152.847 58.1861 153.016 57.8266 152.983 57.3986C152.955 57.045 152.846 56.7258 152.655 56.4411C152.465 56.1564 152.168 55.8332 151.765 55.4714L144.971 49.7382L144.781 47.3096L154.794 42.4565L155.875 45.1526L148.374 48.7146L153.764 53.3776C155.609 54.9376 156.959 56.0493 157.816 56.7127C158.69 57.3561 159.378 57.7705 159.879 57.9561C160.379 58.1231 160.945 58.1819 161.578 58.1326C161.764 58.1181 161.898 58.6319 161.979 59.6741C162.054 60.6418 161.999 61.1329 161.813 61.1474C160.938 61.2156 160.217 61.2064 159.648 61.1196C159.097 61.0128 158.517 60.7772 157.908 60.4128C157.318 60.0469 156.551 59.4607 155.608 58.6542C155.475 59.5821 155.01 60.3485 154.215 60.9535C153.418 61.5399 152.377 61.8832 151.093 61.9833L143.472 62.5776C143.286 62.5921 143.156 62.1155 143.08 61.1477C142.999 60.1056 143.051 59.5772 143.237 59.5627L150.858 58.9685ZM164.934 57.8709C165.529 57.8244 165.992 57.6386 166.323 57.3132C166.67 56.9678 166.822 56.516 166.779 55.9577L166.428 51.4633L169.331 51.2369L169.673 55.6196C169.77 56.8665 170.461 57.4399 171.745 57.3397L172.694 57.2657C172.88 57.2512 173.013 57.7557 173.093 58.7793C173.17 59.7656 173.116 60.2661 172.929 60.2806L171.869 60.3633C170.212 60.4925 169.075 60.0756 168.457 59.1127C167.884 60.1685 166.788 60.7595 165.169 60.8857L161.819 61.1469C161.633 61.1614 161.502 60.6848 161.427 59.7171C161.346 58.6749 161.398 58.1466 161.584 58.1321L164.934 57.8709ZM167.88 63.9603L168.089 66.6401L160.496 67.2322L160.287 64.5523L167.88 63.9603ZM173.376 57.2125C173.991 57.1647 174.419 57.0096 174.66 56.7473C174.919 56.465 175.027 56.054 174.985 55.5143L174.909 54.5373C174.77 52.7507 175.153 51.2979 176.058 50.1788C176.981 49.0583 178.299 48.4312 180.012 48.2977C181.724 48.1642 183.075 48.5644 184.065 49.4982C185.054 50.4135 185.621 51.8016 185.766 53.6626C185.904 55.4306 185.527 56.8455 184.637 57.9073C183.763 58.949 182.479 59.5359 180.786 59.668C179.837 59.742 179.026 59.6741 178.355 59.4643C177.681 59.236 177.177 58.8915 176.842 58.4308C176.549 58.9967 176.142 59.4216 175.621 59.7056C175.119 59.9882 174.449 60.1621 173.612 60.2274L172.942 60.2796C172.756 60.2941 172.625 59.8175 172.549 58.8498C172.468 57.8076 172.52 57.2793 172.707 57.2648L173.376 57.2125ZM182.891 53.8868C182.815 52.9191 182.545 52.2193 182.081 51.7874C181.634 51.3355 180.982 51.1429 180.126 51.2096C179.27 51.2764 178.647 51.5684 178.257 52.0856C177.884 52.5828 177.735 53.3246 177.812 54.3109C177.876 55.1298 178.14 55.7458 178.602 56.1591C179.064 56.5537 179.713 56.7184 180.551 56.6531C181.407 56.5864 182.024 56.3323 182.401 55.891C182.796 55.4295 182.959 54.7615 182.891 53.8868ZM195.878 62.2545C197.311 62.1428 198.395 61.6463 199.132 60.765C199.888 59.901 200.209 58.7338 200.094 57.2636L199.441 48.889L202.345 48.6626L202.68 52.9616C202.781 54.2643 203.539 54.8605 204.954 54.7502L205.344 54.7198C205.531 54.7052 205.664 55.2191 205.746 56.2612C205.821 57.229 205.766 57.7201 205.58 57.7346L205.189 57.7651C204.724 57.8014 204.29 57.7696 203.889 57.6698C203.506 57.5499 203.211 57.3763 203.006 57.1489L203.019 57.3164C203.095 58.7709 202.86 60.0811 202.315 61.247C201.788 62.4115 200.99 63.3444 199.921 64.0456C198.871 64.7454 197.611 65.1526 196.141 65.2672L195.331 65.3303L194.845 62.3351L195.878 62.2545ZM212.959 54.126C213.666 54.0709 214.206 53.9071 214.578 53.6347C214.948 53.3437 215.117 52.9841 215.083 52.5561C215.056 52.2025 214.946 51.8834 214.756 51.5987C214.565 51.314 214.268 50.9907 213.866 50.6289L207.071 44.8958L206.882 42.4671L216.895 37.614L217.976 40.3102L210.474 43.8721L215.865 48.5352C217.709 50.0952 219.06 51.2069 219.916 51.8703C220.79 52.5136 221.478 52.9281 221.979 53.1137C222.479 53.2806 223.046 53.3395 223.678 53.2901C223.864 53.2756 223.998 53.7894 224.079 54.8316C224.155 55.7993 224.099 56.2905 223.913 56.305C223.039 56.3732 222.317 56.3639 221.749 56.2772C221.197 56.1704 220.617 55.9348 220.008 55.5703C219.418 55.2044 218.652 54.6183 217.709 53.8118C217.575 54.7396 217.111 55.5061 216.315 56.1111C215.518 56.6975 214.478 57.0407 213.194 57.1409L205.573 57.7351C205.387 57.7496 205.256 57.273 205.181 56.3053C205.099 55.2631 205.152 54.7348 205.338 54.7203L212.959 54.126ZM227.732 52.974C228.309 52.929 228.689 52.8807 228.872 52.8289C227.775 52.4464 226.971 51.9755 226.459 51.4163C225.965 50.8369 225.681 50.0727 225.607 49.1236C225.527 48.1001 225.687 47.1514 226.087 46.2777C226.505 45.4025 227.106 44.7003 227.888 44.1712C228.688 43.6221 229.609 43.3068 230.651 43.2256C232.401 43.0892 233.801 43.5229 234.853 44.5269C235.924 45.5293 236.533 46.9797 236.681 48.8779L236.755 49.827C237.038 53.456 234.751 55.4599 229.894 55.8387L223.92 56.3045C223.734 56.319 223.603 55.8424 223.527 54.8747C223.446 53.8325 223.498 53.3041 223.685 53.2896L227.732 52.974ZM233.199 52.1265C233.718 51.5804 233.939 50.8143 233.862 49.8279L233.819 49.2696C233.645 47.0364 232.655 45.9902 230.85 46.1309C230.143 46.1861 229.557 46.4845 229.094 47.0261C228.629 47.5492 228.424 48.1643 228.48 48.8715C228.522 49.4112 228.688 49.8663 228.979 50.2368C229.287 50.5872 229.772 50.9146 230.432 51.2188C231.092 51.5231 232.015 51.8256 233.199 52.1265ZM228.621 40.6035L228.408 37.8678L231.758 37.6065L231.971 40.3422L228.621 40.6035ZM246.253 36.5043L250.384 36.1822L251.784 54.1317L247.653 54.4538L246.253 36.5043ZM265.291 43.9227C266.084 44.7222 266.646 45.4554 266.979 46.1222C267.312 46.789 267.507 47.4946 267.565 48.239C267.673 49.6161 267.285 50.7698 266.403 51.6998C265.521 52.6299 264.242 53.1602 262.567 53.2909L254.974 53.8829L254.304 49.6101L261.701 49.0333C262.129 48.9999 262.459 48.8993 262.689 48.7316C262.938 48.5624 263.052 48.3475 263.032 48.087C263.016 47.8823 262.945 47.6912 262.819 47.5138C262.71 47.3164 262.503 47.061 262.197 46.7478L257.199 41.7171L259.981 38.4951L265.291 43.9227ZM277.175 47.8267C277.268 47.8194 277.344 47.9446 277.401 48.2022C277.477 48.4584 277.552 49.0518 277.624 49.9823C277.694 50.8756 277.711 51.4547 277.675 51.7196C277.658 51.983 277.603 52.1183 277.51 52.1256L276.394 52.2127C274.756 52.3404 273.473 51.9724 272.544 51.1086C271.634 50.2434 271.112 48.9454 270.977 47.2147L269.997 34.6528L274.129 34.3306L275.084 46.5854C275.122 47.0693 275.243 47.4156 275.446 47.6245C275.65 47.8333 275.956 47.9217 276.366 47.8898L277.175 47.8267ZM285.036 46.2869C285.162 47.906 284.777 49.2185 283.882 50.2245C283.006 51.229 281.758 51.7944 280.139 51.9206L277.515 52.1253C277.329 52.1398 277.18 51.4398 277.07 50.0255C276.957 48.5739 276.993 47.8408 277.18 47.8263L279.804 47.6217C280.176 47.5927 280.466 47.4671 280.673 47.245C280.899 47.0214 280.999 46.7421 280.973 46.4071L280.624 41.9407L284.672 41.6251L285.036 46.2869ZM279.172 39.5263L278.902 36.0648L283.201 35.7296L283.471 39.1911L279.172 39.5263ZM294.677 46.4619C294.77 46.4547 294.845 46.5799 294.903 46.8375C294.979 47.0937 295.053 47.687 295.126 48.6175C295.195 49.5108 295.212 50.0899 295.177 50.3548C295.16 50.6183 295.105 50.7536 295.012 50.7609L293.895 50.8479C292.258 50.9756 290.975 50.6076 290.046 49.7439C289.136 48.8787 288.613 47.5807 288.478 45.8499L287.499 33.2881L291.63 32.9659L292.586 45.2207C292.624 45.7046 292.744 46.0509 292.948 46.2597C293.151 46.4685 293.458 46.557 293.867 46.5251L294.677 46.4619ZM301.744 45.9109C302.19 45.876 302.529 45.7747 302.759 45.607C302.989 45.4393 303.094 45.2251 303.074 44.9646C303.055 44.7226 302.973 44.5044 302.826 44.3098C302.697 44.0952 302.492 43.8678 302.212 43.6276L295.963 38.4135L295.711 35.1754L306.222 30.2272L307.624 34.1622L301.123 37.2249L305.095 40.6223C305.916 41.3073 306.513 42.0003 306.886 42.7014C307.259 43.4025 307.478 44.1718 307.543 45.0093C307.658 46.4795 307.255 47.6811 306.336 48.6141C305.433 49.527 304.135 50.0495 302.442 50.1815L295.016 50.7605C294.83 50.775 294.682 50.0751 294.572 48.6607C294.459 47.2091 294.495 46.4761 294.681 46.4616L301.744 45.9109ZM329.054 42.6578C329.121 43.5139 329.318 44.1164 329.645 44.4654C329.971 44.8144 330.423 44.9664 331 44.9214L331.782 44.8605C331.875 44.8532 331.948 44.9505 332.001 45.1523C332.073 45.3527 332.134 45.7692 332.183 46.402C332.229 46.9975 332.232 47.3905 332.191 47.5809C332.168 47.7699 332.11 47.8681 332.017 47.8753L331.235 47.9363C330.212 48.0161 329.36 47.8953 328.679 47.5739C328.016 47.2324 327.53 46.6431 327.222 45.8059C326.86 46.2085 326.351 46.529 325.696 46.7674C325.04 47.0057 324.34 47.1539 323.596 47.212C321.958 47.3397 320.677 46.9996 319.753 46.1916C318.827 45.3651 318.297 44.0865 318.162 42.3557C318.081 41.3136 318.239 40.337 318.636 39.426C319.031 38.4965 319.627 37.7385 320.424 37.1521C321.238 36.5457 322.194 36.1996 323.292 36.114L325.637 35.9312L325.491 34.0608L328.366 33.8366L329.054 42.6578ZM321.035 42.1036C321.153 43.611 321.974 44.3052 323.5 44.1862C324.375 44.118 325.043 43.9162 325.503 43.5807C325.963 43.2266 326.171 42.7797 326.129 42.24L325.863 38.8343L323.519 39.0172C322.663 39.0839 322.012 39.3874 321.567 39.9276C321.14 40.4478 320.962 41.1731 321.035 42.1036ZM339.321 42.5875C339.435 44.0577 339.088 45.2457 338.278 46.1513C337.468 47.0384 336.327 47.5392 334.857 47.6539L332.01 47.8759C331.823 47.8904 331.693 47.4138 331.617 46.4461C331.536 45.4039 331.588 44.8756 331.774 44.861L334.622 44.639C335.199 44.594 335.652 44.4089 335.983 44.0835C336.312 43.7396 336.454 43.2885 336.411 42.7302L336.06 38.2358L338.964 38.0094L339.321 42.5875ZM333.036 53.8341L332.823 51.0984L336.172 50.8372L336.386 53.5729L333.036 53.8341ZM349.33 50.2887C350.763 50.177 351.847 49.6805 352.584 48.7992C353.34 47.9351 353.661 46.768 353.546 45.2978L352.893 36.9232L355.797 36.6968L356.132 40.9958C356.233 42.2985 356.991 42.8947 358.406 42.7844L358.797 42.7539C358.983 42.7394 359.116 43.2532 359.198 44.2954C359.273 45.2631 359.218 45.7543 359.032 45.7688L358.641 45.7992C358.176 45.8355 357.743 45.8038 357.342 45.704C356.958 45.5841 356.663 45.4105 356.458 45.1831L356.471 45.3505C356.547 46.805 356.313 48.1153 355.767 49.2812C355.24 50.4457 354.442 51.3786 353.373 52.0798C352.323 52.7795 351.063 53.1867 349.593 53.3014L348.783 53.3645L348.297 50.3692L349.33 50.2887ZM368.937 21.9667L369.609 23.7398L360.18 28.5193L360.025 26.5373L368.937 21.9667ZM366.411 42.1602C367.118 42.105 367.658 41.9413 368.03 41.6688C368.4 41.3778 368.569 41.0183 368.535 40.5903C368.508 40.2367 368.399 39.9175 368.208 39.6328C368.017 39.3481 367.72 39.0249 367.318 38.6631L360.524 32.9299L360.334 30.5013L370.347 25.6482L371.428 28.3443L363.926 31.9063L369.347 36.5951C370.61 37.6575 371.3 38.9424 371.417 40.4498C371.517 41.7339 371.152 42.8109 370.321 43.6808C369.49 44.5507 368.265 45.0488 366.646 45.175L359.025 45.7693C358.839 45.7838 358.708 45.3072 358.633 44.3395C358.552 43.2973 358.604 42.7689 358.79 42.7544L366.411 42.1602ZM375.312 26.3563L378.188 26.1321L379.594 44.1654L376.719 44.3896L375.312 26.3563Z" fill="white"/>
<path d="M18.989 99.0169C18.6748 97.2596 18.4448 95.8057 18.299 94.6552C18.1707 93.4848 18.0537 92.0426 17.9479 90.3286L17.7013 86.3322L20.7475 86.1442L20.9941 90.1406C21.0964 91.7988 21.1454 93.1984 21.141 94.3395C21.1366 95.4806 21.0993 96.9978 21.0291 98.8911L18.989 99.0169ZM20.3034 104.406C19.7072 104.443 19.2514 104.331 18.9361 104.07C18.6394 103.808 18.4709 103.35 18.4306 102.698C18.3916 102.065 18.5037 101.609 18.7671 101.331C19.0479 101.033 19.4865 100.866 20.0827 100.829C20.6975 100.791 21.1533 100.903 21.45 101.165C21.7642 101.408 21.9408 101.846 21.9799 102.479C22.019 103.113 21.8987 103.588 21.619 103.904C21.3381 104.202 20.8996 104.369 20.3034 104.406ZM40.7173 100.005C41.3135 99.9678 41.7794 99.7894 42.115 99.4695C42.4681 99.1298 42.628 98.6898 42.5946 98.1495L42.3153 93.6221L45.2217 93.4427L45.4925 97.8304C45.5695 99.0787 46.2508 99.6631 47.5364 99.5838L48.4866 99.5252C48.6729 99.5137 48.7982 100.03 48.8626 101.073C48.9224 102.042 48.8591 102.532 48.6728 102.543L47.6108 102.609C45.9526 102.711 44.8224 102.276 44.22 101.303C43.63 102.35 42.5245 102.923 40.9036 103.023L31.3178 103.614C29.6596 103.717 28.3756 103.366 27.4657 102.562C26.5546 101.739 26.0502 100.536 25.9525 98.9519L25.6869 94.6481L28.5654 94.4705L28.8069 98.3831C28.8551 99.1656 29.0777 99.741 29.4744 100.109C29.8712 100.477 30.4702 100.637 31.2713 100.587L40.7173 100.005ZM38.9445 89.0049L39.1101 91.6878L31.5085 92.1569L31.343 89.474L38.9445 89.0049ZM50.693 99.389C51.4569 99.3419 52.0241 99.1386 52.3947 98.7791C52.7641 98.4009 52.9293 97.8951 52.8902 97.2617L52.6263 92.9858L55.5328 92.8065L55.7967 97.0823C55.8783 98.4051 56.6737 99.02 58.1828 98.9269C58.9467 98.8797 59.5139 98.6764 59.8845 98.3169C60.2539 97.9388 60.419 97.433 60.3799 96.7995L60.1161 92.5236L63.0226 92.3443L63.2864 96.6202C63.3255 97.2536 63.533 97.7364 63.9088 98.0686C64.2835 98.3821 64.8248 98.517 65.5328 98.4733C66.2594 98.4285 66.7894 98.2275 67.1227 97.8703C67.4735 97.4933 67.6293 96.9881 67.5902 96.3546L67.3264 92.0787L70.2049 91.9011L70.467 96.149C70.5648 97.7327 70.1941 98.9992 69.3549 99.9487C68.5147 100.88 67.3027 101.394 65.7191 101.492C63.8187 101.609 62.5557 101.144 61.9301 100.098C61.2701 101.224 60.0831 101.839 58.369 101.945C57.3257 102.01 56.4886 101.93 55.8576 101.707C55.2256 101.466 54.7531 101.084 54.4403 100.56C53.7804 101.686 52.5934 102.302 50.8793 102.407L48.6715 102.544C48.4852 102.555 48.3621 102.076 48.3023 101.108C48.238 100.064 48.2989 99.5368 48.4852 99.5253L50.693 99.389ZM62.3231 82.3724L62.4835 84.9715L59.549 85.1526L59.3887 82.5535L62.3231 82.3724ZM64.8962 86.3375L65.0617 89.0204L57.4602 89.4895L57.2946 86.8066L64.8962 86.3375ZM74.1408 82.8495L77.0193 82.6719L78.1334 100.726L75.2548 100.903L74.1408 82.8495ZM92.6391 91.4706C93.3186 92.1767 93.8083 92.8385 94.1082 93.4559C94.4256 94.0535 94.605 94.6876 94.6464 95.3583C94.7257 96.6439 94.3336 97.7154 93.4701 98.5729C92.6253 99.4292 91.3924 99.9074 89.7715 100.007L82.0581 100.483L81.5924 97.4823L89.5852 96.9891C90.2932 96.9455 90.8354 96.7904 91.2117 96.5241C91.5868 96.2391 91.7612 95.8824 91.7347 95.4538C91.7164 95.1557 91.6147 94.8721 91.4298 94.603C91.2623 94.3141 90.9686 93.9488 90.5486 93.5072L85.1578 87.9767L87.0703 85.7828L92.6391 91.4706ZM111.251 95.6522C111.828 95.6166 112.278 95.4767 112.6 95.2324C112.939 94.9683 113.096 94.6407 113.072 94.2494C113.05 93.8954 112.853 93.2717 112.479 92.3784C112.106 91.485 111.118 89.2643 109.516 85.7163L112.121 84.2931L115.927 93.2317C116.254 93.9969 116.586 94.5282 116.923 94.8254C117.278 95.1214 117.753 95.251 118.349 95.2142L118.992 95.1746C119.178 95.1631 119.304 95.679 119.368 96.7223C119.407 97.3558 119.404 97.7581 119.358 97.9292C119.332 98.0992 119.271 98.1871 119.178 98.1928L118.424 98.2394C117.567 98.2923 116.851 98.2055 116.276 97.9792C115.701 97.7528 115.228 97.3612 114.857 96.8044C114.557 97.4026 114.126 97.85 113.565 98.1465C113.003 98.4429 112.294 98.6176 111.437 98.6705L105.065 99.0637L104.599 96.0627L111.251 95.6522ZM122.334 94.9684C122.93 94.9316 123.396 94.7532 123.731 94.4333C124.084 94.0935 124.244 93.6442 124.209 93.0853L123.932 88.5858L126.838 88.4065L127.109 92.7941C127.186 94.0424 127.867 94.6269 129.153 94.5476L130.103 94.489C130.289 94.4775 130.414 94.9841 130.477 96.0088C130.538 96.9962 130.475 97.4957 130.289 97.5072L129.227 97.5727C127.569 97.6751 126.439 97.2399 125.836 96.2671C125.246 97.3134 124.141 97.8866 122.52 97.9866L119.166 98.1936C118.98 98.2051 118.857 97.7264 118.797 96.7576C118.733 95.7142 118.794 95.1868 118.98 95.1753L122.334 94.9684ZM125.181 101.105L125.347 103.788L117.745 104.257L117.579 101.574L125.181 101.105ZM133.776 94.2623C133.324 93.8975 132.948 93.425 132.651 92.8449C132.353 92.2648 132.185 91.6673 132.147 91.0525C132.083 90.0092 132.268 89.0627 132.702 88.213C133.134 87.3447 133.755 86.6518 134.565 86.1343C135.374 85.5981 136.3 85.2979 137.343 85.2335C138.33 85.1726 139.23 85.3508 140.041 85.7683C140.871 86.1847 141.534 86.7796 142.031 87.5532C142.545 88.3069 142.832 89.1682 142.891 90.1371C142.935 90.845 142.809 91.5261 142.513 92.1803C142.235 92.8333 141.829 93.3727 141.294 93.7984L144.703 93.588C145.393 93.5455 145.907 93.3922 146.246 93.1281C146.585 92.8641 146.741 92.5085 146.713 92.0613C146.692 91.726 146.589 91.4144 146.403 91.1267C146.234 90.8191 145.903 90.4468 145.408 90.0098L139.514 84.5104L141.45 82.2308L147.499 87.9732C148.194 88.6223 148.711 89.273 149.05 89.9254C149.39 90.5777 149.581 91.2578 149.625 91.9658C149.705 93.27 149.323 94.3503 148.478 95.2066C147.632 96.0443 146.436 96.5109 144.89 96.6063L141.76 96.7994C140.549 96.8741 139.671 96.9002 139.127 96.8777C138.601 96.8353 138.164 96.7221 137.816 96.5378C137.492 96.7448 137.025 96.9045 136.415 97.017C135.823 97.1283 134.969 97.2185 133.851 97.2875L130.301 97.5065C130.115 97.518 129.992 97.0393 129.932 96.0705C129.868 95.0271 129.929 94.4997 130.115 94.4882L133.776 94.2623ZM137.603 93.9981C138.456 93.5714 139.098 93.0643 139.529 92.4766C139.96 91.8889 140.155 91.2504 140.112 90.561C140.065 89.7972 139.794 89.1967 139.3 88.7597C138.804 88.304 138.165 88.1003 137.382 88.1486C136.6 88.1969 135.981 88.4782 135.527 88.9925C135.09 89.487 134.895 90.1162 134.942 90.8801C135.029 92.296 135.916 93.3354 137.603 93.9981ZM153.233 77.9691L156.111 77.7914L157.225 95.8451L154.347 96.0227L153.233 77.9691ZM174.797 91.731C174.984 91.7195 175.109 92.2355 175.173 93.2788C175.233 94.2476 175.17 94.7378 174.984 94.7493L172.496 94.9028C172.441 97.0382 171.807 98.7418 170.595 100.014C169.402 101.284 167.771 101.983 165.703 102.111L162.098 102.333L161.66 99.3306L165.601 99.0874C166.924 99.0058 167.946 98.606 168.669 97.8882C169.391 97.1703 169.726 96.2332 169.674 95.0769L167.27 95.2253C165.295 95.3471 163.855 95.0339 162.948 94.2857C162.041 93.5188 161.533 92.269 161.426 90.5363C161.353 89.3439 161.511 88.2774 161.902 87.3369C162.312 86.3952 162.911 85.6476 163.699 85.0939C164.506 84.5205 165.449 84.2005 166.53 84.1338C168.188 84.0315 169.527 84.5099 170.546 85.5692C171.564 86.6098 172.132 88.0896 172.25 90.0086L172.366 91.8811L174.797 91.731ZM164.324 90.2172C164.373 90.9997 164.612 91.546 165.043 91.8561C165.472 92.1475 166.199 92.2616 167.224 92.1984L169.487 92.0587L169.375 90.2421C169.308 89.1429 169.033 88.3276 168.551 87.7963C168.068 87.2463 167.408 86.9972 166.569 87.0489C165.805 87.096 165.227 87.4123 164.832 87.9977C164.437 88.5644 164.268 89.3043 164.324 90.2172ZM176.804 91.6072C178.22 91.5198 179.378 91.3455 180.278 91.0842C181.197 90.8218 182.124 90.3812 183.058 89.7625L186.455 87.5331C186.159 86.6723 185.778 86.0974 185.311 85.8083C184.843 85.5005 184.162 85.3742 183.268 85.4294L176.812 85.8277L176.989 82.7871L183.585 82.3801C184.74 82.3088 185.693 82.4464 186.443 82.7928C187.193 83.1206 187.838 83.7167 188.377 84.5811C188.917 85.4455 189.423 86.6767 189.896 88.2746L184.55 92.1111C183.35 92.9707 182.181 93.5851 181.045 93.9545C179.925 94.3041 178.527 94.5306 176.851 94.6341L174.978 94.7496C174.792 94.7611 174.669 94.2825 174.609 93.3136C174.545 92.2703 174.606 91.7429 174.792 91.7314L176.804 91.6072ZM179.846 79.5249L179.677 76.7861L183.03 76.5792L183.199 79.318L179.846 79.5249ZM206.202 91.9252C206.297 93.4716 206.073 94.8414 205.529 96.0345C204.986 97.2275 204.165 98.1665 203.066 98.8515C201.987 99.5539 200.703 99.9512 199.212 100.043L198.402 100.093L197.964 97.0904L198.998 97.0266C200.433 96.9381 201.525 96.4592 202.276 95.59C203.046 94.7383 203.386 93.5765 203.295 92.1046L202.778 83.7205L205.684 83.5412L206.202 91.9252ZM202.19 80.5587L202.021 77.82L205.375 77.613L205.544 80.3518L202.19 80.5587ZM215.884 89.1958C215.977 89.19 216.048 89.2885 216.098 89.4911C216.167 89.6926 216.221 90.1101 216.26 90.7435C216.297 91.3397 216.293 91.7327 216.248 91.9225C216.223 92.1111 216.163 92.2083 216.07 92.214L215.232 92.2657C213.741 92.3577 212.587 91.9894 211.769 91.1609C210.951 90.3324 210.493 89.117 210.394 87.5147L209.59 74.4914L212.469 74.3138L213.26 87.1414C213.307 87.9053 213.482 88.4556 213.783 88.7924C214.103 89.128 214.58 89.2762 215.213 89.2371L215.884 89.1958ZM219.247 88.9882C219.843 88.9514 220.309 88.7731 220.645 88.4531C220.998 88.1134 221.157 87.6641 221.123 87.1051L220.845 82.6057L223.751 82.4263L224.022 86.814C224.099 88.0623 224.78 88.6468 226.066 88.5674L227.016 88.5088C227.203 88.4973 227.327 89.0039 227.391 90.0286C227.451 91.0161 227.389 91.5156 227.202 91.5271L226.141 91.5926C224.482 91.6949 223.352 91.2597 222.75 90.287C222.16 91.3333 221.054 91.9065 219.433 92.0065L216.08 92.2134C215.893 92.2249 215.77 91.7462 215.71 90.7774C215.646 89.7341 215.707 89.2067 215.893 89.1952L219.247 88.9882ZM222.094 95.1245L222.26 97.8074L214.658 98.2765L214.493 95.5936L222.094 95.1245ZM234.61 86.357C234.701 87.8289 234.335 89.011 233.511 89.9035C232.686 90.7773 231.537 91.2596 230.065 91.3504L227.215 91.5263C227.028 91.5378 226.905 91.0591 226.846 90.0903C226.781 89.047 226.842 88.5196 227.028 88.5081L229.879 88.3322C230.457 88.2965 230.913 88.1187 231.249 87.7988C231.583 87.4602 231.733 87.0115 231.699 86.4525L231.421 81.9531L234.328 81.7737L234.61 86.357ZM229.576 78.8689L229.407 76.1301L232.76 75.9231L232.929 78.6619L229.576 78.8689ZM260.118 86.4662C260.695 86.4306 261.152 86.2528 261.487 85.9329C261.822 85.5943 261.972 85.1549 261.939 84.6145L261.66 80.0872L264.566 79.9078L264.853 84.547C264.941 85.9816 264.573 87.1451 263.749 88.0376C262.924 88.9114 261.776 89.3937 260.304 89.4845L250.662 90.0795C249.004 90.1818 247.72 89.8309 246.81 89.0267C245.899 88.2039 245.395 87.0007 245.297 85.417L245.031 81.1132L247.91 80.9356L248.151 84.8482C248.2 85.6307 248.422 86.2061 248.819 86.5743C249.216 86.9426 249.815 87.102 250.616 87.0526L260.118 86.4662ZM254.051 95.9018L253.882 93.163L257.236 92.956L257.405 95.6948L254.051 95.9018ZM274.752 85.5632C274.845 85.5575 274.917 85.6559 274.967 85.8585C275.035 86.06 275.089 86.4775 275.128 87.111C275.165 87.7072 275.161 88.1002 275.117 88.2899C275.091 88.4785 275.032 88.5757 274.939 88.5815L274.1 88.6332C272.61 88.7252 271.455 88.3569 270.638 87.5284C269.82 86.6998 269.361 85.4844 269.262 83.8821L268.459 70.8589L271.337 70.6813L272.129 83.5089C272.176 84.2728 272.35 84.8231 272.651 85.1598C272.971 85.4954 273.448 85.6437 274.082 85.6046L274.752 85.5632ZM278.116 85.3557C278.712 85.3189 279.178 85.1405 279.513 84.8206C279.866 84.4808 280.026 84.0315 279.991 83.4726L279.713 78.9731L282.62 78.7938L282.891 83.1814C282.968 84.4297 283.649 85.0142 284.935 84.9349L285.885 84.8763C286.071 84.8648 286.196 85.3714 286.259 86.3961C286.32 87.3835 286.257 87.883 286.071 87.8945L285.009 87.9601C283.351 88.0624 282.221 87.6272 281.618 86.6544C281.028 87.7007 279.923 88.2739 278.302 88.3739L274.948 88.5809C274.762 88.5924 274.639 88.1137 274.579 87.1449C274.515 86.1015 274.576 85.5741 274.762 85.5626L278.116 85.3557ZM282.565 72.906L282.731 75.5889L275.129 76.0579L274.964 73.375L282.565 72.906ZM293.526 84.4047C294.234 84.361 294.777 84.206 295.153 83.9397C295.528 83.6547 295.702 83.2979 295.676 82.8694C295.654 82.5154 295.55 82.1946 295.364 81.9068C295.178 81.619 294.887 81.291 294.49 80.9228L287.789 75.0804L287.639 72.649L297.73 67.9586L298.767 70.6719L291.208 74.112L296.552 78.8879C297.797 79.9706 298.467 81.2665 298.56 82.7756C298.639 84.0612 298.256 85.1321 297.411 85.9885C296.567 86.8448 295.334 87.323 293.713 87.423L286.083 87.8938C285.897 87.9053 285.774 87.4266 285.714 86.4578C285.65 85.4144 285.711 84.887 285.897 84.8755L293.526 84.4047ZM326.095 80.6557C326.128 81.196 326.313 81.6148 326.649 81.912C327.003 82.1894 327.488 82.3091 328.102 82.2712L328.745 82.2315C328.931 82.22 329.057 82.7359 329.121 83.7793C329.181 84.7481 329.118 85.2383 328.931 85.2498L328.4 85.2825C327.972 85.309 327.568 85.2778 327.188 85.189C326.827 85.0991 326.549 84.976 326.352 84.8198L326.361 84.9596C326.41 86.3592 326.142 87.6288 325.558 88.7682C324.973 89.9077 324.122 90.8112 323.004 91.4787C321.887 92.1648 320.583 92.5538 319.092 92.6458L317.918 92.7182C315.534 92.8654 313.656 92.2893 312.285 90.9899C310.916 89.7091 310.155 87.8298 310.002 85.3518L309.667 79.9301L312.546 79.7525L312.877 85.1183C313.077 88.3601 314.705 89.8868 317.76 89.6982L318.906 89.6275C320.396 89.5356 321.545 89.0532 322.351 88.1806C323.158 87.3079 323.517 86.1543 323.428 84.7197L322.909 76.3077L325.816 76.1283L326.095 80.6557ZM315.378 76.0991L315.209 73.3603L318.563 73.1534L318.732 75.8922L315.378 76.0991ZM335.536 81.8125C336.114 81.7768 336.57 81.599 336.906 81.2791C337.24 80.9405 337.39 80.4918 337.356 79.9328L337.078 75.4334L339.985 75.254L340.268 79.8373C340.358 81.3092 339.992 82.4913 339.168 83.3838C338.361 84.2564 337.213 84.7387 335.722 84.8307L328.931 85.2498C328.745 85.2613 328.622 84.7826 328.562 83.8138C328.498 82.7704 328.559 82.243 328.745 82.2315L335.536 81.8125ZM337.014 88.0332L337.18 90.7161L329.578 91.1852L329.413 88.5023L337.014 88.0332ZM343.893 66.2041L346.772 66.0265L347.886 84.0802L345.007 84.2578L343.893 66.2041ZM369.401 77.3102C369.453 78.1673 369.64 78.7729 369.962 79.1271C370.283 79.4814 370.732 79.6407 371.31 79.605L372.092 79.5567C372.185 79.551 372.257 79.6494 372.307 79.8521C372.375 80.0536 372.429 80.4711 372.468 81.1045C372.505 81.7007 372.501 82.0937 372.457 82.2835C372.431 82.4721 372.371 82.5693 372.278 82.575L371.496 82.6233C370.471 82.6865 369.621 82.5519 368.946 82.2196C368.288 81.8674 367.812 81.2703 367.517 80.4282C367.149 80.8249 366.635 81.1372 365.976 81.3649C365.317 81.5926 364.614 81.7294 363.869 81.7754C362.23 81.8766 360.954 81.5158 360.043 80.693C359.131 79.8516 358.621 78.5645 358.514 76.8318C358.45 75.7885 358.624 74.8146 359.035 73.9102C359.446 72.9871 360.054 72.2389 360.861 71.6655C361.684 71.0723 362.646 70.7418 363.745 70.674L366.093 70.5291L365.977 68.6567L368.856 68.479L369.401 77.3102ZM361.391 76.6262C361.484 78.1354 362.295 78.8428 363.823 78.7485C364.698 78.6945 365.369 78.5035 365.835 78.1755C366.3 77.8289 366.516 77.3854 366.482 76.8451L366.272 73.4356L363.924 73.5804C363.067 73.6333 362.412 73.9262 361.959 74.4592C361.523 74.9723 361.334 75.6947 361.391 76.6262ZM379.667 77.4062C379.757 78.878 379.391 80.0602 378.567 80.9526C377.742 81.8264 376.593 82.3087 375.121 82.3996L372.271 82.5755C372.085 82.587 371.961 82.1083 371.902 81.1395C371.837 80.0961 371.898 79.5687 372.085 79.5572L374.935 79.3813C375.513 79.3457 375.969 79.1679 376.305 78.8479C376.639 78.5094 376.789 78.0606 376.755 77.5017L376.477 73.0022L379.384 72.8229L379.667 77.4062ZM373.201 88.5495L373.032 85.8108L376.385 85.6038L376.554 88.3426L373.201 88.5495Z" fill="white"/>
</svg>
