<svg width="25" height="24" viewBox="0 0 25 24" fill="none" xmlns="http://www.w3.org/2000/svg">
<path d="M9.71533 15L15.7153 9.00002M4.70433 14.66L3.18433 13.14C2.56433 12.52 2.56433 11.5 3.18433 10.88L4.70433 9.36002C4.96433 9.10002 5.17433 8.59002 5.17433 8.23002V6.08002C5.17433 5.20002 5.89433 4.48002 6.77433 4.48002H8.92433C9.28433 4.48002 9.79433 4.27002 10.0543 4.01002L11.5743 2.49002C12.1943 1.87002 13.2143 1.87002 13.8343 2.49002L15.3543 4.01002C15.6143 4.27002 16.1243 4.48002 16.4843 4.48002H18.6343C19.5143 4.48002 20.2343 5.20002 20.2343 6.08002V8.23002C20.2343 8.59002 20.4443 9.10002 20.7043 9.36002L22.2243 10.88C22.8443 11.5 22.8443 12.52 22.2243 13.14L20.7043 14.66C20.4443 14.92 20.2343 15.43 20.2343 15.79V17.94C20.2343 18.82 19.5143 19.54 18.6343 19.54H16.4843C16.1243 19.54 15.6143 19.75 15.3543 20.01L13.8343 21.53C13.2143 22.15 12.1943 22.15 11.5743 21.53L10.0543 20.01C9.79433 19.75 9.28433 19.54 8.92433 19.54H6.77433C5.89433 19.54 5.17433 18.82 5.17433 17.94V15.79C5.17433 15.42 4.96433 14.91 4.70433 14.66V14.66Z" stroke="#FE6B6B" stroke-width="1.5" stroke-linecap="round" stroke-linejoin="round"/>
<path d="M15.2103 14.5H15.2193M10.2103 9.5H10.2183" stroke="#FE6B6B" stroke-width="2" stroke-linecap="round" stroke-linejoin="round"/>
</svg>
