<svg width="61" height="61" viewBox="0 0 61 61" fill="none" xmlns="http://www.w3.org/2000/svg">
<g clip-path="url(#clip0_6_67)">
<path d="M24.5889 32.8324C24.1444 34.8415 25.3403 36.8007 27.2458 37.2223L31.1396 38.0839C32.7966 38.4505 34.4545 37.34 34.844 35.5795C35.261 33.6947 34.5838 32.8279 33.4581 32.1226L27.705 28.5684C26.5793 27.8631 25.8974 27.017 26.3191 25.1115C26.704 23.3717 28.3665 22.2405 30.0235 22.6071L33.9173 23.4687C35.8227 23.8903 37.0187 25.8496 36.5741 27.8586M32.6312 21.0333L28.5066 39.6739" stroke="#FE6B6B" stroke-width="2.5" stroke-linecap="round" stroke-linejoin="round"/>
<path d="M51.2806 34.9365C48.7509 46.3693 37.4189 53.5951 25.986 51.0653C14.5531 48.5356 7.32738 37.2036 9.85713 25.7707C12.3869 14.3378 23.7189 7.11209 35.1518 9.64184M54.0304 22.5094L55.8635 14.2247L47.5788 12.3916M43.2162 22.2891L55.8635 14.2247" stroke="#FE6B6B" stroke-width="2.5" stroke-linecap="round" stroke-linejoin="round"/>
</g>
<defs>
<clipPath id="clip0_6_67">
<rect width="50.9105" height="50.9105" fill="white" transform="translate(11.2142) rotate(12.4768)"/>
</clipPath>
</defs>
</svg>
