<svg width="177" height="789" viewBox="0 0 177 789" fill="none" xmlns="http://www.w3.org/2000/svg">
<path d="M160.715 8C160.715 12.4183 164.297 16 168.715 16C173.134 16 176.715 12.4183 176.715 8C176.715 3.58172 173.134 0 168.715 0C164.297 0 160.715 3.58172 160.715 8ZM49.1372 778.061C49.723 777.475 49.723 776.525 49.1372 775.939L39.5912 766.393C39.0055 765.808 38.0557 765.808 37.4699 766.393C36.8841 766.979 36.8841 767.929 37.4699 768.515L45.9552 777L37.4699 785.485C36.8841 786.071 36.8841 787.021 37.4699 787.607C38.0557 788.192 39.0055 788.192 39.5912 787.607L49.1372 778.061ZM168.715 6.5H41.7153V9.5H168.715V6.5ZM0.215332 48V737H3.21533V48H0.215332ZM41.7153 778.5H48.0765V775.5H41.7153V778.5ZM0.215332 737C0.215332 759.92 18.7955 778.5 41.7153 778.5V775.5C20.4524 775.5 3.21533 758.263 3.21533 737H0.215332ZM41.7153 6.5C18.7955 6.5 0.215332 25.0802 0.215332 48H3.21533C3.21533 26.737 20.4524 9.5 41.7153 9.5V6.5Z" fill="#FF6969"/>
</svg>
