<svg width="483" height="61" viewBox="0 0 483 61" fill="none" xmlns="http://www.w3.org/2000/svg">
<path d="M471.382 55C471.382 57.9455 473.77 60.3333 476.715 60.3333C479.661 60.3333 482.049 57.9455 482.049 55C482.049 52.0545 479.661 49.6667 476.715 49.6667C473.77 49.6667 471.382 52.0545 471.382 55ZM0.381999 44.6438C0.381999 47.5894 2.76981 49.9772 5.71533 49.9772C8.66085 49.9772 11.0487 47.5894 11.0487 44.6438C11.0487 41.6983 8.66085 39.3105 5.71533 39.3105C2.76981 39.3105 0.381999 41.6983 0.381999 44.6438ZM477.715 55V41H475.715V55H477.715ZM436.715 0H45.7153V2H436.715V0ZM4.71533 41V44.6438H6.71533V41H4.71533ZM45.7153 0C23.0717 0 4.71533 18.3563 4.71533 41H6.71533C6.71533 19.4609 24.1762 2 45.7153 2V0ZM477.715 41C477.715 18.3563 459.359 0 436.715 0V2C458.254 2 475.715 19.4609 475.715 41H477.715Z" fill="#FF6969"/>
</svg>
