<svg width="167" height="1370" viewBox="0 0 167 1370" fill="none" xmlns="http://www.w3.org/2000/svg">
<path d="M0.715332 8C0.715332 12.4183 4.29705 16 8.71533 16C13.1336 16 16.7153 12.4183 16.7153 8C16.7153 3.58172 13.1336 0 8.71533 0C4.29705 0 0.715332 3.58172 0.715332 8ZM107.655 1356.94C107.069 1357.53 107.069 1358.47 107.655 1359.06L117.201 1368.61C117.786 1369.19 118.736 1369.19 119.322 1368.61C119.908 1368.02 119.908 1367.07 119.322 1366.49L110.837 1358L119.322 1349.51C119.908 1348.93 119.908 1347.98 119.322 1347.39C118.736 1346.81 117.786 1346.81 117.201 1347.39L107.655 1356.94ZM8.71533 9.5H124.715V6.5H8.71533V9.5ZM163.215 48V1318H166.215V48H163.215ZM124.715 1356.5H108.715V1359.5H124.715V1356.5ZM163.215 1318C163.215 1339.26 145.978 1356.5 124.715 1356.5V1359.5C147.635 1359.5 166.215 1340.92 166.215 1318H163.215ZM124.715 9.5C145.978 9.5 163.215 26.737 163.215 48H166.215C166.215 25.0802 147.635 6.5 124.715 6.5V9.5Z" fill="#FF6969"/>
</svg>
