<svg width="24" height="24" viewBox="0 0 24 24" fill="none" xmlns="http://www.w3.org/2000/svg">
<path d="M19.96 8.95799C19.29 8.21799 18.28 7.78799 16.88 7.63799V6.87799C16.88 5.50799 16.3 4.18799 15.28 3.26799C14.7767 2.80654 14.1815 2.45664 13.5336 2.24122C12.8856 2.02581 12.1994 1.94973 11.52 2.01799C9.12999 2.24799 7.11999 4.55799 7.11999 7.05799V7.63799C5.71999 7.78799 4.70999 8.21799 4.03999 8.95799C3.06999 10.038 3.09999 11.478 3.20999 12.478L3.90999 18.048C4.11999 19.998 4.90999 21.998 9.20999 21.998H14.79C19.09 21.998 19.88 19.998 20.09 18.058L20.79 12.468C20.9 11.478 20.93 10.038 19.96 8.95799ZM11.66 3.40799C12.1446 3.35931 12.6341 3.41284 13.0967 3.56514C13.5594 3.71743 13.9849 3.96509 14.3459 4.29212C14.7068 4.61915 14.9952 5.01827 15.1922 5.46369C15.3893 5.90911 15.4907 6.39092 15.49 6.87799V7.57799H8.50999V7.05799C8.50999 5.27799 9.97999 3.56799 11.66 3.40799ZM12 18.578C9.90999 18.578 8.20999 16.878 8.20999 14.788C8.20999 12.698 9.90999 10.998 12 10.998C14.09 10.998 15.79 12.698 15.79 14.788C15.79 16.878 14.09 18.578 12 18.578Z" fill="#D52B1E"/>
<path d="M11.43 16.64C11.24 16.64 11.05 16.57 10.9 16.42L9.91002 15.43C9.77054 15.2888 9.69232 15.0984 9.69232 14.9C9.69232 14.7016 9.77054 14.5111 9.91002 14.37C10.2 14.08 10.68 14.08 10.97 14.37L11.45 14.85L13.05 13.37C13.35 13.09 13.83 13.11 14.11 13.41C14.39 13.71 14.37 14.19 14.07 14.47L11.94 16.44C11.79 16.57 11.61 16.64 11.43 16.64Z" fill="#D52B1E"/>
</svg>
