<svg width="24" height="24" viewBox="0 0 24 24" fill="none" xmlns="http://www.w3.org/2000/svg">
<path d="M22 4.84999V16.74C22 17.71 21.21 18.6 20.24 18.72L19.93 18.76C18.29 18.98 15.98 19.66 14.12 20.44C13.47 20.71 12.75 20.22 12.75 19.51V5.59999C12.75 5.22999 12.96 4.88999 13.29 4.70999C15.12 3.71999 17.89 2.83999 19.77 2.67999H19.83C21.03 2.67999 22 3.64999 22 4.84999ZM10.708 4.70999C8.87801 3.71999 6.10801 2.83999 4.22801 2.67999H4.15801C2.95801 2.67999 1.98801 3.64999 1.98801 4.84999V16.74C1.98801 17.71 2.77801 18.6 3.74801 18.72L4.05801 18.76C5.69801 18.98 8.00801 19.66 9.86801 20.44C10.518 20.71 11.238 20.22 11.238 19.51V5.59999C11.2393 5.41739 11.1907 5.23791 11.0972 5.08102C11.0038 4.92413 10.8692 4.79581 10.708 4.70999ZM4.99801 7.73999H7.24801C7.44692 7.73999 7.63768 7.81901 7.77834 7.95966C7.91899 8.10031 7.99801 8.29108 7.99801 8.48999C7.99801 8.6889 7.91899 8.87967 7.77834 9.02032C7.63768 9.16097 7.44692 9.23999 7.24801 9.23999H4.99801C4.79909 9.23999 4.60833 9.16097 4.46768 9.02032C4.32702 8.87967 4.24801 8.6889 4.24801 8.48999C4.24801 8.29108 4.32702 8.10031 4.46768 7.95966C4.60833 7.81901 4.79909 7.73999 4.99801 7.73999ZM7.99801 12.24H4.99801C4.79909 12.24 4.60833 12.161 4.46768 12.0203C4.32702 11.8797 4.24801 11.6889 4.24801 11.49C4.24801 11.2911 4.32702 11.1003 4.46768 10.9597C4.60833 10.819 4.79909 10.74 4.99801 10.74H7.99801C8.19692 10.74 8.38768 10.819 8.52834 10.9597C8.66899 11.1003 8.74801 11.2911 8.74801 11.49C8.74801 11.6889 8.66899 11.8797 8.52834 12.0203C8.38768 12.161 8.19692 12.24 7.99801 12.24Z" fill="#D52B1E"/>
</svg>
