<svg width="20" height="20" viewBox="0 0 20 20" fill="none" xmlns="http://www.w3.org/2000/svg">
<g clip-path="url(#clip0_1_11)">
<path d="M15.4711 4.58017C16.8798 5.62939 17.5841 6.154 17.9587 6.85804C18.3334 7.56208 18.3334 8.36115 18.3334 9.95929V11.2021C18.3334 14.5638 18.3334 16.2446 17.113 17.289C15.8926 18.3333 13.9284 18.3333 10 18.3333C6.07165 18.3333 4.10746 18.3333 2.88707 17.289C1.66669 16.2446 1.66669 14.5638 1.66669 11.2021L1.66669 9.95929C1.66669 8.36115 1.66669 7.56208 2.04132 6.85804C2.41594 6.154 3.12029 5.62939 4.52898 4.58017C7.1368 2.63783 8.4407 1.66666 10 1.66666C11.5593 1.66666 12.8632 2.63783 15.4711 4.58017Z" fill="#D52B1E"/>
<path d="M11.6667 9.16666V13.3333" stroke="white" stroke-width="1.5" stroke-linecap="round"/>
<path d="M8.33337 9.16666V13.3333" stroke="white" stroke-width="1.5" stroke-linecap="round"/>
</g>
<defs>
<clipPath id="clip0_1_11">
<rect width="20" height="20" fill="white"/>
</clipPath>
</defs>
</svg>
